<?xml version="1.0" encoding="utf-8"?>
<!-- Svg Vector Icons : http://www.onlinewebfonts.com/icon -->
<!DOCTYPE svg PUBLIC "-//W3C//DTD SVG 1.1//EN" "http://www.w3.org/Graphics/SVG/1.1/DTD/svg11.dtd">
<svg version="1.1" xmlns="http://www.w3.org/2000/svg" xmlns:xlink="http://www.w3.org/1999/xlink" x="0px" y="0px" viewBox="0 0 1000 1000" enable-background="new 0 0 1000 1000" xml:space="preserve">
<metadata> Svg Vector Icons : http://www.onlinewebfonts.com/icon </metadata>
<g><g transform="translate(0.000000,511.000000) scale(0.100000,-0.100000)"><path d="M274.4,4428.1c-50.1-24-109-76.3-130.8-113.4C100,4244.9,100,4186.1,100,1016c0-3065.4,2.2-3231.1,39.2-3298.7c21.8-39.2,69.8-91.6,109-113.4c67.6-43.6,146.1-43.6,4746.3-43.6c4628.6,0,4676.5,0,4748.5,43.6c39.2,24,89.4,74.1,113.4,113.4c43.6,71.9,43.6,117.7,43.6,3287.7c0,3019.6-2.2,3220.2-39.2,3289.9c-19.6,41.4-65.4,95.9-98.1,119.9l-61,45.8l-4670,6.5C398.7,4471.7,361.6,4471.7,274.4,4428.1z M9285.2,1011.7l4.4-2840.8H5005.4H721.4V1016v2845.2l4279.7-4.4l4277.6-6.5L9285.2,1011.7z"/><path d="M3856.5-2784.1l-126.4-6.5v-281.3v-281.3l-100.3-95.9c-54.5-52.3-178.8-143.9-276.9-200.6c-335.8-200.6-320.5-178.8-320.5-405.5v-194h1975.3h1977.4l-15.3,67.6c-6.5,37.1-13.1,135.2-13.1,218v150.4l-157,78.5c-209.3,104.7-385.9,226.7-470.9,324.9l-69.8,78.5v276.9v276.9H5121C4493.1-2777.5,3924.1-2779.7,3856.5-2784.1z M5801.2-3313.8c0-113.4,43.6-226.7,133-344.5c48-61,85-117.7,85-122.1c0-6.5-462.2-10.9-1026.9-10.9h-1029l58.9,71.9c93.8,111.2,165.7,279.1,165.7,381.5v91.6h806.7h806.7V-3313.8z"/></g></g>
</svg>